<svg width="24" height="24" viewBox="0 0 24 24" fill="currentColor" xmlns="http://www.w3.org/2000/svg">
<path d="M16.0468 13.795L15.4335 9.37502C15.3646 8.73377 14.7865 8.25002 14.0908 8.25002H13.3506C13.1709 8.25002 12.9993 8.31627 12.8724 8.43252L11.9997 9.24002L11.1271 8.43252C11.0001 8.31627 10.8286 8.25002 10.6489 8.25002H9.91004C9.21302 8.25002 8.63487 8.73377 8.56733 9.35877L7.95271 13.7963C7.9284 13.9738 7.98783 14.1538 8.11616 14.2875C8.24449 14.4225 8.4282 14.5 8.62272 14.5H9.35216L9.91679 20.875C9.98434 21.515 10.5638 22 11.2609 22H12.74C13.437 22 14.0152 21.515 14.0854 20.8638L14.6487 14.5H15.3768C15.5713 14.5 15.755 14.4225 15.8833 14.2875C16.013 14.1538 16.0724 13.9738 16.0468 13.795Z" />
<path d="M7.36479 18.3019L7.13803 20.8638C7.06779 21.515 6.48964 22 5.79262 22H4.31348C3.61646 22 3.03696 21.515 2.96942 20.875L2.40478 14.5H1.67534C1.48083 14.5 1.29712 14.4225 1.16879 14.2875C1.04046 14.1538 0.981026 13.9738 1.00534 13.7963L1.61996 9.35877C1.6875 8.73377 2.26565 8.25002 2.96267 8.25002H3.70156C3.88122 8.25002 4.05277 8.31627 4.17975 8.43252L5.05238 9.24002L5.925 8.43252C6.05198 8.31627 6.22353 8.25002 6.40319 8.25002H6.48274C6.37724 8.51284 6.30396 8.79381 6.26844 9.09005L5.65715 13.5035L5.65671 13.5066C5.54242 14.341 5.82221 15.1752 6.40882 15.7888C6.63787 16.0289 6.90404 16.2261 7.19425 16.3764L7.36479 18.3019Z" />
<path d="M17.5134 8.25002H17.5963C17.776 8.25002 17.9475 8.31627 18.0745 8.43252L18.9471 9.24002L19.8197 8.43252C19.9467 8.31627 20.1183 8.25002 20.2979 8.25002H21.0382C21.7338 8.25002 22.312 8.73377 22.3809 9.37502L22.9941 13.795C23.0198 13.9738 22.9604 14.1538 22.8307 14.2875C22.7024 14.4225 22.5187 14.5 22.3241 14.5H21.5961L21.0328 20.8638C20.9625 21.515 20.3844 22 19.6874 22H18.2082C17.5112 22 16.9317 21.515 16.8642 20.875L16.6363 18.3023L16.8068 16.3756C17.0947 16.2263 17.359 16.0308 17.5867 15.7931C18.1792 15.1772 18.4603 14.3381 18.3419 13.4986L17.7325 9.10666C17.6965 8.80469 17.6216 8.51806 17.5134 8.25002Z" />
<path d="M5.05246 6.99999C6.54453 6.99999 7.58553 5.88071 7.58553 4.5C7.58553 3.11929 6.54453 2 5.05246 2C3.5604 2 2.51974 3.1193 2.51974 4.50001C2.51974 5.88072 3.5604 6.99999 5.05246 6.99999Z" />
<path d="M11.9998 6.99999C13.4919 6.99999 14.5329 5.88071 14.5329 4.5C14.5329 3.11929 13.4919 2 11.9998 2C10.5078 2 9.46711 3.1193 9.46711 4.50001C9.46711 5.88072 10.5078 6.99999 11.9998 6.99999Z" />
<path d="M18.9472 6.99999C20.4393 6.99999 21.4803 5.88071 21.4803 4.5C21.4803 3.11929 20.4393 2 18.9472 2C17.4551 2 16.4145 3.1193 16.4145 4.50001C16.4145 5.88072 17.4551 6.99999 18.9472 6.99999Z" />
</svg>
